# xmcd
#
# Track frame offsets: 
#        150
#        9952
#        22670
#        32157
#        45101
#        57099
#        67501
#        78401
#        87886
#        100070
#        111795
#        122264
#        132627
#        143511
#        156364
#        170615
#        180294
#        194234
#        204955
#        214597
#
# Disc length: 3028 seconds
#
# Revision: 2
# Processed by: cddbd v1.5.2PL0 Copyright (c) Steve Scherf et al.
# Submitted via: ExactAudioCopyFreeDBPlugin 1.0
#
DISCID=f10bd214
DTITLE=Various Artist - Soul heaven
DYEAR=2001
DGENRE=Soul
TTITLE0=Ann Cole - Don't stop the wedding
TTITLE1=Jimmy Jones - Walkin'
TTITLE2=Derek Martin - You know
TTITLE3=Ben Aiken - Stay together young lovers
TTITLE4=The Dixie Drifter - Soul heaven
TTITLE5=The Heartbeats - One day next year
TTITLE6=Tiny Tim and The Hits - Wedding bells
TTITLE7=The Essex - Easier said than done
TTITLE8=The Platters - with this ring
TTITLE9=Maxine Brown - Oh not my baby
TTITLE10=Chuck Jackson - I don't want to cry
TTITLE11=The Dubs - Could this be magic
TTITLE12=The Esquires - Get on up
TTITLE13=Roscoe Robinson - That's enough
TTITLE14=Fred Hughes - Send my baby back
TTITLE15=Little Anthony and The Imperials - Hurt
TTITLE16=Bobby Womack - I can't take it like a man
TTITLE17=Willie Mitchell and The Four Kings - Walking at your will
TTITLE18=Sam Hawkins - King of fools
TTITLE19=Johnny Wyatt - To whom it may concern
EXTD=
EXTT0=
EXTT1=
EXTT2=
EXTT3=
EXTT4=
EXTT5=
EXTT6=
EXTT7=
EXTT8=
EXTT9=
EXTT10=
EXTT11=
EXTT12=
EXTT13=
EXTT14=
EXTT15=
EXTT16=
EXTT17=
EXTT18=
EXTT19=
PLAYORDER=
